<svg id="Capa_1" enable-background="new 0 0 512 512" height="512" viewBox="0 0 512 512" width="512" xmlns="http://www.w3.org/2000/svg" xmlns:xlink="http://www.w3.org/1999/xlink"><linearGradient id="SVGID_1_" gradientUnits="userSpaceOnUse" x1="256" x2="256" y1="421" y2="61"><stop offset="0" stop-color="#00b59c"/><stop offset="1" stop-color="#9cffac"/></linearGradient><linearGradient id="SVGID_2_" gradientUnits="userSpaceOnUse" x1="286" x2="286" y1="451" y2="91"><stop offset="0" stop-color="#c3ffe8"/><stop offset=".9973" stop-color="#f0fff4"/></linearGradient><g><g><g><path d="m256 226c-49.629 0-90 40.371-90 90s40.371 90 90 90 90-40.371 90-90-40.371-90-90-90zm241-105h-46l-16.336-15-13.664 15h-44.099l-16.802-49.801c-1.8-5.999-7.798-10.199-14.099-10.199h-180c-6.301 0-12.299 4.2-14.099 10.199l-16.802 49.801h-120.099c-8.401 0-15 6.599-15 15v270c0 8.399 6.599 15 15 15h161.8c6.301 0 11.7-3.9 14.101-9.6 2.1-6 .599-12.6-4.2-16.8-22.801-19.801-35.701-48.6-35.701-78.6 0-57.9 47.1-105 105-105s105 47.1 105 105c0 30-12.9 58.799-35.7 78.6-4.799 4.201-6.301 10.8-4.2 16.8 2.401 5.7 7.8 9.6 14.101 9.6h161.799c8.401 0 15-6.601 15-15v-270c0-8.401-6.599-15-15-15z" fill="url(#SVGID_1_)"/></g></g><g><g><path d="m256 181c-74.7 0-135 60.3-135 135s60.3 135 135 135 135-60.3 135-135-60.3-135-135-135zm0 210c-41.4 0-75-33.6-75-75s33.6-75 75-75 75 33.6 75 75-33.6 75-75 75zm-30-240h60c8.291 0 15-6.709 15-15s-6.709-15-15-15h-60c-8.291 0-15 6.709-15 15s6.709 15 15 15zm210-60c-8.401 0-15 6.599-15 15v15h30v-15c0-8.401-6.599-15-15-15z" fill="url(#SVGID_2_)"/></g></g></g></svg>