<svg xmlns="http://www.w3.org/2000/svg" viewBox="0 0 317.44 98.93"><defs><style>.cls-1{fill:#333;}.cls-2{fill:#4f46e5;}.cls-3{fill:#fff;}</style></defs><g id="Слой_2" data-name="Слой 2"><g id="Слой_1-2" data-name="Слой 1"><path class="cls-1" d="M125.84,26.75h1.31a21.2,21.2,0,0,1,15.44,6.62,21.34,21.34,0,0,1,.2,30.73q-6.43,6.6-14.35,6.59V60.12c1.67,0,3.56-1.14,5.68-3.44a11.61,11.61,0,0,0,3.4-7.9,10.85,10.85,0,0,0-3.49-8,11.35,11.35,0,0,0-8.21-3.42V70.69H114.13V37.32Z"/><path class="cls-1" d="M168.1,25.73v45H156.4V36.29Z"/><path class="cls-1" d="M173.74,70.69V60.12h15.31a2.92,2.92,0,0,0,2.86-2.88q0-3.16-4.41-3.17a12.64,12.64,0,0,1-9.68-4.14A13.55,13.55,0,0,1,174,40.44a13,13,0,0,1,4.22-9.52,13.05,13.05,0,0,1,9.38-4.17H214L202.28,37.32H188.65a2.92,2.92,0,0,0-2.05.87,2.77,2.77,0,0,0-.92,2.07q0,3.24,4.53,3.24a13.37,13.37,0,0,1,13.4,13.57A13,13,0,0,1,199.39,67,13.25,13.25,0,0,1,190,70.69Z"/><path class="cls-1" d="M224.57,25.73v45h-11.7V36.29Z"/><path class="cls-1" d="M254.14,37.32A11.24,11.24,0,0,0,246,40.74a10.88,10.88,0,0,0-3.48,8A10.7,10.7,0,0,0,246,56.71a11.29,11.29,0,0,0,8.1,3.41V43.44h11.7V70.69h-13a21.19,21.19,0,0,1-15.41-6.56,20.9,20.9,0,0,1-6.62-15.35,21.12,21.12,0,0,1,6.62-15.41,21.14,21.14,0,0,1,15.41-6.62h24.7l-11.7,10.57Z"/><path class="cls-1" d="M311.38,32q6.06,6.1,6.06,16.68t-6.17,16.69q-5.82,5.88-15,5.88t-15-5.88q-6.12-6.18-6.12-16.69T281.28,32q5.82-5.88,15-5.88Q305.57,26.16,311.38,32Zm-7.83,8.31a9.23,9.23,0,0,0-14.61-.06q-2.08,3.09-2.08,8.43A14.7,14.7,0,0,0,289,57.15a8.19,8.19,0,0,0,7.24,3.57,8.33,8.33,0,0,0,7.37-3.57q2.13-3.07,2.13-8.43A14.57,14.57,0,0,0,303.55,40.35Z"/><g id="Слой_1-3" data-name="Слой_1"><path class="cls-2" d="M98.91,44.11c-.55-15.79-4.7-28.5-14.06-35.44S61.42-.68,43.74.16c-8,.39-15.27,1.43-21.15,3.78A31.05,31.05,0,0,0,8.41,14.58C1.52,24.17-.61,38.65.14,55.33.86,71.17,5,83.71,14.44,90.54s24.73,8.95,40.87,8.27C71,98.15,83.7,94,90.52,84.51s9-23.44,8.39-40.4Z"/></g><path class="cls-3" d="M24.84,59.18V85.37H17.46v-20Z"/><path class="cls-3" d="M43.5,65.93a7.43,7.43,0,0,0-5.15,2,6.16,6.16,0,0,0-2.2,4.69,6,6,0,0,0,2.23,4.61,7.45,7.45,0,0,0,5.12,2V69.49h7.38V85.37H42.67A14,14,0,0,1,33,81.54a11.76,11.76,0,0,1-4.18-8.93,11.89,11.89,0,0,1,4.18-9,13.9,13.9,0,0,1,9.72-3.85H58.26l-7.38,6.15Z"/><path class="cls-3" d="M79.62,62.86q3.82,3.56,3.82,9.71a12.64,12.64,0,0,1-3.9,9.72,13.36,13.36,0,0,1-9.48,3.42,13.31,13.31,0,0,1-9.44-3.42,12.66,12.66,0,0,1-3.86-9.72,12.62,12.62,0,0,1,3.86-9.71,13.27,13.27,0,0,1,9.44-3.43A13.44,13.44,0,0,1,79.62,62.86Zm-5,4.84a6.13,6.13,0,0,0-9.22,0,8.22,8.22,0,0,0-1.31,4.91,8.1,8.1,0,0,0,1.35,4.91,5.35,5.35,0,0,0,4.57,2.08,5.42,5.42,0,0,0,4.65-2.08,8,8,0,0,0,1.35-4.91A7.92,7.92,0,0,0,74.67,67.7Z"/><path class="cls-3" d="M68.78,20.89l-.18-.41-.3.33a6.59,6.59,0,0,1-2.65,1.83l-.28.11.11.27a17.31,17.31,0,1,1-16-10.67A17.05,17.05,0,0,1,56.91,14l.28.14.12-.28a6.64,6.64,0,0,1,1.95-2.56l.35-.28-.4-.21a21.18,21.18,0,1,0,9.58,10.06ZM49.5,20a9.66,9.66,0,1,0,9.66,9.66A9.67,9.67,0,0,0,49.5,20Zm18.27-3.55a4.41,4.41,0,1,1-8.81,0h0a4.41,4.41,0,0,1,8.81,0Z"/></g></g></svg>