<svg xmlns="http://www.w3.org/2000/svg" viewBox="0 0 99 98.93"><defs><style>.cls-1{fill:#4f46e5;}.cls-2{fill:#fff;}</style></defs><g id="Слой_2" data-name="Слой 2"><g id="Слой_1-2" data-name="Слой 1"><g id="Слой_1-3" data-name="Слой_1"><path class="cls-1" d="M98.91,44.11c-.55-15.79-4.7-28.5-14.06-35.44S61.42-.68,43.74.16c-8,.39-15.27,1.43-21.15,3.78A31.05,31.05,0,0,0,8.41,14.58C1.52,24.17-.61,38.65.14,55.33.86,71.17,5,83.71,14.44,90.54s24.73,8.95,40.87,8.27C71,98.15,83.7,94,90.52,84.51s9-23.44,8.39-40.4Z"/></g><path class="cls-2" d="M24.84,59.18V85.37H17.46v-20Z"/><path class="cls-2" d="M43.5,65.93a7.43,7.43,0,0,0-5.15,2,6.16,6.16,0,0,0-2.2,4.69,6,6,0,0,0,2.23,4.61,7.45,7.45,0,0,0,5.12,2V69.49h7.38V85.37H42.67A14,14,0,0,1,33,81.54a11.76,11.76,0,0,1-4.18-8.93,11.89,11.89,0,0,1,4.18-9,13.9,13.9,0,0,1,9.72-3.85H58.26l-7.38,6.15Z"/><path class="cls-2" d="M79.62,62.86q3.82,3.56,3.82,9.71a12.64,12.64,0,0,1-3.9,9.72,13.36,13.36,0,0,1-9.48,3.42,13.31,13.31,0,0,1-9.44-3.42,12.66,12.66,0,0,1-3.86-9.72,12.62,12.62,0,0,1,3.86-9.71,13.27,13.27,0,0,1,9.44-3.43A13.44,13.44,0,0,1,79.62,62.86Zm-5,4.84a6.13,6.13,0,0,0-9.22,0,8.22,8.22,0,0,0-1.31,4.91,8.1,8.1,0,0,0,1.35,4.91,5.35,5.35,0,0,0,4.57,2.08,5.42,5.42,0,0,0,4.65-2.08,8,8,0,0,0,1.35-4.91A7.92,7.92,0,0,0,74.67,67.7Z"/><path class="cls-2" d="M68.78,20.89l-.18-.41-.3.33a6.59,6.59,0,0,1-2.65,1.83l-.28.11.11.27a17.31,17.31,0,1,1-16-10.67A17.05,17.05,0,0,1,56.91,14l.28.14.12-.28a6.64,6.64,0,0,1,1.95-2.56l.35-.28-.4-.21a21.18,21.18,0,1,0,9.58,10.06ZM49.5,20a9.66,9.66,0,1,0,9.66,9.66A9.67,9.67,0,0,0,49.5,20Zm18.27-3.55a4.41,4.41,0,1,1-8.81,0h0a4.41,4.41,0,0,1,8.81,0Z"/></g></g></svg>