<svg xmlns="http://www.w3.org/2000/svg" viewBox="0 0 299.62 78.32"><defs><style>.cls-1{fill:#4c00d3;}.cls-2{fill:#2f008a;}.cls-3{font-size:59.38px;font-family:Jost-SemiBold, Jost;font-weight:600;}</style></defs><g id="Слой_2" data-name="Слой 2"><g id="Слой_1-2" data-name="Слой 1"><rect class="cls-1" y="19.01" width="13" height="39"/><path class="cls-2" d="M43.5,77.06A38.53,38.53,0,1,1,72.34,13L63,21.26a26,26,0,1,0,5.8,23.49H57V32.26l18.89,0,6.19,0v6.2A38.57,38.57,0,0,1,43.5,77.06Z"/><path class="cls-1" d="M43.66,58A19.54,19.54,0,0,1,24.14,38.44,19.52,19.52,0,0,1,43.66,18.92a19.52,19.52,0,1,1,0,39Zm0-26.55a7,7,0,0,0-5.84,3.11,7,7,0,0,0-1.2,3.93,7,7,0,1,0,7-7Z"/><text class="cls-3" transform="translate(90.48 57.54)">DISIGO</text></g></g></svg>