<svg class="h-8 w-8 text-indigo-700" xmlns="http://www.w3.org/2000/svg" xmlns:xlink="http://www.w3.org/1999/xlink" version="1.1" id="Capa_1" x="0px" y="0px" viewBox="0 0 45.532 45.532" xml:space="preserve">
                                            <path xmlns="http://www.w3.org/2000/svg" fill="#4f46e5" id="svg_2" d="m22.766,0.001c-12.572,0 -22.766,10.192 -22.766,22.765s10.193,22.765 22.766,22.765c12.574,0 22.766,-10.192 22.766,-22.765s-10.192,-22.765 -22.766,-22.765zm0,6.807c4.16,0 7.531,3.372 7.531,7.53c0,4.159 -3.371,7.53 -7.531,7.53c-4.158,0 -7.529,-3.371 -7.529,-7.53c0,-4.158 3.371,-7.53 7.529,-7.53zm-0.005,32.771c-4.149,0 -7.949,-1.511 -10.88,-4.012c-0.714,-0.609 -1.126,-1.502 -1.126,-2.439c0,-4.217 3.413,-7.592 7.631,-7.592l8.762,0c4.219,0 7.619,3.375 7.619,7.592c0,0.938 -0.41,1.829 -1.125,2.438c-2.93,2.502 -6.731,4.013 -10.881,4.013z"></path>
                                        </svg>