<svg xmlns="http://www.w3.org/2000/svg" viewBox="0 0 300 100"><defs><style>.cls-1,.cls-3{fill:#fff;}.cls-1{fill-opacity:0.8;}.cls-2{fill:#23bdee;}.cls-4{fill:#595959;}.cls-5{fill:#545567;}</style></defs><g id="Слой_2" data-name="Слой 2"><g id="Слой_1-2" data-name="Слой 1"><rect class="cls-1" width="300" height="100" rx="20"/><rect class="cls-2" x="28" y="25" width="50" height="50" rx="8"/><path class="cls-3" d="M40.06,65.24a.65.65,0,0,1-.65-.65v-24a.65.65,0,0,1,.65-.65H56.71a.65.65,0,0,1,.65.65V52.74A10.22,10.22,0,0,1,59.94,52V40.63a3.23,3.23,0,0,0-3.23-3.22h-13v-1.1a.66.66,0,0,1,.65-.66H61a.66.66,0,0,1,.65.66V51.86a10.18,10.18,0,0,1,2.58.37V36.31A3.23,3.23,0,0,0,61,33.08H44.38a3.23,3.23,0,0,0-3.22,3.23v1.1h-1.1a3.22,3.22,0,0,0-3.22,3.22v24a3.23,3.23,0,0,0,3.22,3.23H52.67a10.32,10.32,0,0,1-1.15-2.58Z"/><path class="cls-3" d="M44,46.7H50.7a1.29,1.29,0,1,0,0-2.57H44a1.29,1.29,0,1,0,0,2.57Z"/><path class="cls-3" d="M52.76,49.28H44a1.29,1.29,0,1,0,0,2.57h8.75a1.29,1.29,0,1,0,0-2.57Z"/><path class="cls-3" d="M53.93,55.18a1.3,1.3,0,0,0-1.17-.75H44A1.29,1.29,0,1,0,44,57h8.55A10.58,10.58,0,0,1,53.93,55.18Z"/><path class="cls-3" d="M42.72,60.87A1.28,1.28,0,0,0,44,62.15H51.1a9.91,9.91,0,0,1,.37-2.57H44A1.29,1.29,0,0,0,42.72,60.87Z"/><path class="cls-3" d="M68.49,60.55a7.34,7.34,0,0,1,.23,1.77,7.17,7.17,0,1,1-7.17-7.17,7.08,7.08,0,0,1,2.84.59L65.46,54a9,9,0,0,0-3.91-.89,9.18,9.18,0,1,0,9.18,9.18,9.07,9.07,0,0,0-.9-3.93Z"/><path class="cls-3" d="M70.2,52.1a1.68,1.68,0,0,0-2.31.54L61.24,63.33,59,60.15a1.67,1.67,0,0,0-1.37-.71,1.7,1.7,0,0,0-1,.3,1.67,1.67,0,0,0-.41,2.33L60,67.32a1.69,1.69,0,0,0,1.37.72h0a1.66,1.66,0,0,0,1.37-.79l8-12.84A1.68,1.68,0,0,0,70.2,52.1Z"/><path class="cls-4" d="M110.48,36.88h-3V32.37H104v4.51h-3V25.82h3v4.1h3.47v-4.1h3Z"/><path class="cls-4" d="M118.29,36.88l-.57-1.14h-.06a3.39,3.39,0,0,1-1.22,1,4,4,0,0,1-1.6.27,2.47,2.47,0,0,1-1.9-.73,2.79,2.79,0,0,1-.7-2,2.34,2.34,0,0,1,1-2,5.15,5.15,0,0,1,2.76-.75l1.43,0V31.3a.93.93,0,0,0-1-1.06,6.1,6.1,0,0,0-2.38.64l-.86-1.95a8.15,8.15,0,0,1,3.78-.78,3.73,3.73,0,0,1,2.56.82,3,3,0,0,1,.9,2.29v5.62Zm-2.19-1.94a1.33,1.33,0,0,0,.92-.34,1.15,1.15,0,0,0,.38-.89v-.66l-.68,0c-1,0-1.46.39-1.46,1.07S115.54,34.94,116.1,34.94Z"/><path class="cls-4" d="M132.36,40h-2.59V36.88h-5.66V40h-2.59V34.67h.76a11.5,11.5,0,0,0,1.1-2.79,21.76,21.76,0,0,0,.63-3.57h7.08v6.36h1.27Zm-4.23-5.35V30.51h-1.69a18.39,18.39,0,0,1-.37,2,18,18,0,0,1-.68,2.17Z"/><path class="cls-4" d="M137.71,37a4.61,4.61,0,0,1-3.33-1.14,4.28,4.28,0,0,1-1.18-3.24,4.66,4.66,0,0,1,1.09-3.33,4.11,4.11,0,0,1,3.14-1.17,4.18,4.18,0,0,1,3,1,3.87,3.87,0,0,1,1.05,2.91v1.32h-5.28a1.48,1.48,0,0,0,.52,1.13,2.07,2.07,0,0,0,1.35.4,6.52,6.52,0,0,0,1.44-.14,7.17,7.17,0,0,0,1.41-.51V36.4a5.05,5.05,0,0,1-1.43.49A10.08,10.08,0,0,1,137.71,37Zm-.18-6.86a1.21,1.21,0,0,0-.87.33,1.51,1.51,0,0,0-.41,1h2.54a1.49,1.49,0,0,0-.35-1A1.17,1.17,0,0,0,137.53,30.17Z"/><path class="cls-4" d="M148.2,32.46V28.31h2.88v4.15l2.66-4.15h3.18L154,32.38l3.19,4.5H154l-2.91-4.35v4.35H148.2V32.53l-2.91,4.35h-3.23l3.2-4.5-2.9-4.07h3.17Z"/><path class="cls-4" d="M161.13,28.31v3.08h2.35V28.31h3v8.57h-3V33.59h-2.35v3.29h-3V28.31Z"/><path class="cls-4" d="M171.43,28.31v3.08h.28a6.38,6.38,0,0,1,3.23.62,2.2,2.2,0,0,1,1,2,2.48,2.48,0,0,1-1,2.16,5.08,5.08,0,0,1-2.91.68h-3.59V28.31ZM173,34.17a.75.75,0,0,0-.25-.64,1.28,1.28,0,0,0-.83-.2h-.47v1.61h.5C172.63,34.94,173,34.68,173,34.17Zm6.86,2.71h-3V28.31h3Z"/><path class="cls-4" d="M186,37a4.58,4.58,0,0,1-3.32-1.14,4.29,4.29,0,0,1-1.19-3.24,4.66,4.66,0,0,1,1.1-3.33,4.09,4.09,0,0,1,3.13-1.17,4.16,4.16,0,0,1,3,1,3.84,3.84,0,0,1,1.06,2.91v1.32h-5.29a1.49,1.49,0,0,0,.53,1.13,2.07,2.07,0,0,0,1.35.4,6.42,6.42,0,0,0,1.43-.14,7,7,0,0,0,1.42-.51V36.4a5.11,5.11,0,0,1-1.44.49A9.92,9.92,0,0,1,186,37Zm-.17-6.86a1.25,1.25,0,0,0-.88.33,1.56,1.56,0,0,0-.41,1h2.54a1.44,1.44,0,0,0-.35-1A1.13,1.13,0,0,0,185.86,30.17Z"/><path class="cls-4" d="M103.47,46.9v2.15c0,.12,0,.25,0,.39s0,1-.1,2.7l3.43-5.24h3.26v8.56h-2.63V53.14c0-.81,0-1.77.11-2.88l-3.41,5.2h-3.29V46.9Z"/><path class="cls-4" d="M116,55.62a4.2,4.2,0,0,1-3.19-1.14,4.53,4.53,0,0,1-1.09-3.26,4.1,4.1,0,0,1,4.51-4.48,6.3,6.3,0,0,1,2.81.65l-.87,2.19a8.34,8.34,0,0,0-1-.37,3,3,0,0,0-1-.14,1.26,1.26,0,0,0-1.11.56,2.73,2.73,0,0,0-.39,1.58c0,1.37.5,2,1.52,2a4.58,4.58,0,0,0,2.49-.75v2.35A4.87,4.87,0,0,1,116,55.62Z"/><path class="cls-4" d="M128.58,46.9v8.56h-3V49.1H123.4v6.36h-3V46.9Z"/><path class="cls-4" d="M138.81,51.16a4.55,4.55,0,0,1-1.13,3.28,4.2,4.2,0,0,1-3.17,1.18,4.1,4.1,0,0,1-3.1-1.21,4.48,4.48,0,0,1-1.15-3.25,4.42,4.42,0,0,1,1.13-3.25,4.2,4.2,0,0,1,3.17-1.17,4.49,4.49,0,0,1,2.23.54,3.63,3.63,0,0,1,1.49,1.54A4.87,4.87,0,0,1,138.81,51.16Zm-5.55,0a3.87,3.87,0,0,0,.29,1.68,1,1,0,0,0,1,.58,1,1,0,0,0,1-.58,3.89,3.89,0,0,0,.28-1.68,3.72,3.72,0,0,0-.29-1.65,1,1,0,0,0-1-.56,1,1,0,0,0-1,.55A3.74,3.74,0,0,0,133.26,51.16Z"/><path class="cls-4" d="M149.1,55.46h-3V49.1H144.4a23.68,23.68,0,0,1-.63,4,3.84,3.84,0,0,1-1,1.88,2.63,2.63,0,0,1-1.79.59,3.54,3.54,0,0,1-1.34-.23v-2.2a1.38,1.38,0,0,0,.66.13.61.61,0,0,0,.55-.35,3.58,3.58,0,0,0,.38-1.12,18.42,18.42,0,0,0,.29-2c.09-.81.18-1.8.26-3h7.36Z"/><path class="cls-4" d="M154.1,46.9V50h2.34V46.9h3v8.56h-3V52.18H154.1v3.28h-3V46.9Z"/><path class="cls-4" d="M164.07,46.9v2.54c0,.15,0,1-.1,2.7l3.42-5.24h3.27v8.56H168V53.14c0-.81,0-1.77.11-2.88l-3.42,5.2h-3.28V46.9Z"/><path class="cls-4" d="M180.65,49.1h-2.82v6.36h-3V49.1h-2.82V46.9h8.6Z"/><path class="cls-4" d="M186.18,55.62a4.6,4.6,0,0,1-3.32-1.14,4.29,4.29,0,0,1-1.19-3.24,4.66,4.66,0,0,1,1.1-3.33,4.09,4.09,0,0,1,3.13-1.17,4.16,4.16,0,0,1,3,1A3.84,3.84,0,0,1,190,50.66V52h-5.29a1.45,1.45,0,0,0,.53,1.12,2,2,0,0,0,1.35.41,6,6,0,0,0,2.85-.65V55a5,5,0,0,1-1.44.49A9.92,9.92,0,0,1,186.18,55.62ZM186,48.76a1.21,1.21,0,0,0-.87.33,1.49,1.49,0,0,0-.42,1h2.54a1.42,1.42,0,0,0-.35-1A1.13,1.13,0,0,0,186,48.76Z"/><path class="cls-4" d="M200.22,55.46h-3V49.1h-1.74a22.91,22.91,0,0,1-.62,4A3.84,3.84,0,0,1,193.85,55a2.61,2.61,0,0,1-1.79.59,3.57,3.57,0,0,1-1.34-.23v-2.2a1.43,1.43,0,0,0,.67.13.62.62,0,0,0,.55-.35,3.9,3.9,0,0,0,.37-1.12c.11-.51.21-1.18.3-2s.17-1.8.25-3h7.36Z"/><path class="cls-4" d="M204.89,46.9v2.54c0,.15,0,1-.1,2.7l3.42-5.24h3.27v8.56h-2.63V53.14c0-.81,0-1.77.11-2.88l-3.42,5.2h-3.28V46.9Z"/><path class="cls-5" d="M106.21,75h-1V67.91h-4.4V75h-1V67.09h6.4Z"/><path class="cls-5" d="M111.41,75.11a2.83,2.83,0,0,1-1.14-.22,2.08,2.08,0,0,1-.87-.65h-.07a8.52,8.52,0,0,1,.07,1v2.44h-1V69.07h.79l.14.81h.05a2.31,2.31,0,0,1,.87-.7,2.9,2.9,0,0,1,1.14-.22,2.47,2.47,0,0,1,2,.81,3.37,3.37,0,0,1,.69,2.26,3.33,3.33,0,0,1-.7,2.27A2.48,2.48,0,0,1,111.41,75.11Zm-.14-5.38a1.78,1.78,0,0,0-1.42.5,2.43,2.43,0,0,0-.45,1.6V72a2.81,2.81,0,0,0,.45,1.79,1.78,1.78,0,0,0,1.45.54,1.53,1.53,0,0,0,1.3-.63,2.72,2.72,0,0,0,.47-1.71,2.63,2.63,0,0,0-.47-1.7A1.58,1.58,0,0,0,111.27,69.73Z"/><path class="cls-5" d="M121.33,72a3.08,3.08,0,0,1-.79,2.26,2.9,2.9,0,0,1-2.19.82,3.21,3.21,0,0,1-1.53-.37,2.56,2.56,0,0,1-1-1.08,3.47,3.47,0,0,1-.36-1.63,3.13,3.13,0,0,1,.78-2.26,2.9,2.9,0,0,1,2.18-.81,2.85,2.85,0,0,1,2.15.83A3.1,3.1,0,0,1,121.33,72Zm-4.89,0a2.62,2.62,0,0,0,.49,1.73,2.05,2.05,0,0,0,2.9,0,3.28,3.28,0,0,0,0-3.45,1.82,1.82,0,0,0-1.47-.58,1.78,1.78,0,0,0-1.44.58A2.63,2.63,0,0,0,116.44,72Z"/><path class="cls-5" d="M128.25,70.56a1.08,1.08,0,0,1-.36.88,2,2,0,0,1-1,.4v0a2.24,2.24,0,0,1,1.2.44,1.23,1.23,0,0,1,.38,1,1.44,1.44,0,0,1-.66,1.27,3.42,3.42,0,0,1-1.93.45H123V69.07h2.82C127.46,69.07,128.25,69.57,128.25,70.56Zm-1,.09a.64.64,0,0,0-.36-.62,2.53,2.53,0,0,0-1.09-.18H124v1.67h1.65a2.91,2.91,0,0,0,1.27-.2A.7.7,0,0,0,127.3,70.65Zm.19,2.57a.76.76,0,0,0-.4-.71,3,3,0,0,0-1.31-.21H124v2h1.79C126.92,74.25,127.49,73.9,127.49,73.22Z"/><path class="cls-5" d="M132.59,75.11a3.11,3.11,0,0,1-2.25-.8,3,3,0,0,1-.83-2.22,3.26,3.26,0,0,1,.77-2.28,2.66,2.66,0,0,1,2.06-.85,2.53,2.53,0,0,1,1.91.74,2.66,2.66,0,0,1,.7,1.93v.57h-4.43a2.2,2.2,0,0,0,.58,1.58,2.06,2.06,0,0,0,1.52.54,5.51,5.51,0,0,0,2.06-.4v.8a5.41,5.41,0,0,1-1,.3A5.93,5.93,0,0,1,132.59,75.11Zm-.27-5.39a1.66,1.66,0,0,0-1.23.46,2,2,0,0,0-.54,1.29h3.36a1.88,1.88,0,0,0-.41-1.3A1.53,1.53,0,0,0,132.32,69.72Z"/><path class="cls-5" d="M139.6,75.11a2.83,2.83,0,0,1-1.14-.22,2.08,2.08,0,0,1-.87-.65h-.07a8.52,8.52,0,0,1,.07,1v2.44h-1V69.07h.79l.14.81h.05a2.31,2.31,0,0,1,.87-.7A2.9,2.9,0,0,1,139.6,69a2.47,2.47,0,0,1,2,.81,3.37,3.37,0,0,1,.69,2.26,3.29,3.29,0,0,1-.71,2.27A2.46,2.46,0,0,1,139.6,75.11Zm-.14-5.38a1.78,1.78,0,0,0-1.42.5,2.37,2.37,0,0,0-.45,1.6V72a2.81,2.81,0,0,0,.45,1.79,1.78,1.78,0,0,0,1.45.54,1.53,1.53,0,0,0,1.3-.63,2.72,2.72,0,0,0,.47-1.71,2.63,2.63,0,0,0-.47-1.7A1.58,1.58,0,0,0,139.46,69.73Z"/><path class="cls-5" d="M144.29,75h-1.13L145,72.5a2.08,2.08,0,0,1-1.14-.59,1.59,1.59,0,0,1-.39-1.1,1.53,1.53,0,0,1,.59-1.27,2.63,2.63,0,0,1,1.65-.47h2.87V75h-1V72.63H146Zm.13-4.17q0,1,1.62,1h1.56v-2h-1.76C144.89,69.85,144.42,70.18,144.42,70.83Z"/><path class="cls-5" d="M153.36,75.11a3.11,3.11,0,0,1-2.25-.8,3,3,0,0,1-.82-2.22,3.26,3.26,0,0,1,.76-2.28,2.66,2.66,0,0,1,2.06-.85,2.53,2.53,0,0,1,1.91.74,2.66,2.66,0,0,1,.7,1.93v.57h-4.43a2.2,2.2,0,0,0,.58,1.58,2.06,2.06,0,0,0,1.52.54,5.51,5.51,0,0,0,2.06-.4v.8a5.41,5.41,0,0,1-1,.3A5.93,5.93,0,0,1,153.36,75.11Zm-.27-5.39a1.66,1.66,0,0,0-1.23.46,2,2,0,0,0-.54,1.29h3.36a1.88,1.88,0,0,0-.41-1.3A1.53,1.53,0,0,0,153.09,69.72Z"/><path class="cls-5" d="M160.72,74.13l.18-.5.25-.64,1.75-3.91h1.23V75h-.86V70.11l-.12.31-.34.83L161.15,75h-.81l-1.66-3.76a11,11,0,0,1-.43-1.13V75h-.87V69.08h1.19l1.69,3.76C160.42,73.24,160.58,73.67,160.72,74.13Z"/><path class="cls-5" d="M173.08,69.07h1.06l-2.77,2.86,3,3.07h-1.13l-2.94-3v3h-1V69.07h1V72Z"/><path class="cls-5" d="M179.52,75l-.2-.84h0a2.63,2.63,0,0,1-1,.75,3.2,3.2,0,0,1-1.2.2,2.21,2.21,0,0,1-1.49-.46,1.56,1.56,0,0,1-.55-1.29c0-1.2,1-1.82,3.12-1.88l1.09,0v-.37a1.18,1.18,0,0,0-1.37-1.36,4.6,4.6,0,0,0-1.82.45l-.3-.69a5.41,5.41,0,0,1,1-.37A4.78,4.78,0,0,1,178,69a2.52,2.52,0,0,1,1.7.47,1.86,1.86,0,0,1,.56,1.51v4Zm-2.2-.63a2.13,2.13,0,0,0,1.43-.46,1.66,1.66,0,0,0,.52-1.29v-.53l-1,0a3.77,3.77,0,0,0-1.67.34,1,1,0,0,0-.52.91.89.89,0,0,0,.32.74A1.42,1.42,0,0,0,177.32,74.37Z"/><path class="cls-5" d="M185.18,69.08h.9V72l2.65-2.88h1.07L187.11,72,190,75H188.9l-2.82-3v3h-.9V72l-2.82,3h-1.12l2.91-3-2.69-2.88h1.07L185.18,72Z"/><path class="cls-5" d="M196.67,77.05h-.95V75h-4.49v2h-.94V74.23h.51A7.72,7.72,0,0,0,192,71.92a9.1,9.1,0,0,0,.46-2.85h3.26v5.16h.92Zm-1.86-2.82V69.78h-1.44a9.34,9.34,0,0,1-.51,2.43,6.72,6.72,0,0,1-1.05,2Z"/><path class="cls-5" d="M203.5,72a3.08,3.08,0,0,1-.79,2.26,2.9,2.9,0,0,1-2.19.82,3.21,3.21,0,0,1-1.53-.37,2.56,2.56,0,0,1-1-1.08A3.47,3.47,0,0,1,197.6,72a3.13,3.13,0,0,1,.78-2.26,2.9,2.9,0,0,1,2.18-.81,2.85,2.85,0,0,1,2.15.83A3.1,3.1,0,0,1,203.5,72Zm-4.9,0a2.62,2.62,0,0,0,.5,1.73,2.05,2.05,0,0,0,2.9,0,3.28,3.28,0,0,0,0-3.45,1.82,1.82,0,0,0-1.47-.58,1.78,1.78,0,0,0-1.44.58A2.63,2.63,0,0,0,198.6,72Z"/><path class="cls-5" d="M209.08,69.84h-2.9V75h-1V69.07h3.87Z"/><path class="cls-5" d="M215.9,72a3.08,3.08,0,0,1-.79,2.26,2.9,2.9,0,0,1-2.19.82,3.21,3.21,0,0,1-1.53-.37,2.56,2.56,0,0,1-1-1.08A3.47,3.47,0,0,1,210,72a3.13,3.13,0,0,1,.78-2.26A2.89,2.89,0,0,1,213,69a2.85,2.85,0,0,1,2.15.83A3.1,3.1,0,0,1,215.9,72ZM211,72a2.62,2.62,0,0,0,.5,1.73,2.05,2.05,0,0,0,2.9,0,3.28,3.28,0,0,0,0-3.45,1.82,1.82,0,0,0-1.47-.58,1.78,1.78,0,0,0-1.44.58A2.63,2.63,0,0,0,211,72Z"/><path class="cls-5" d="M227.61,72a2.86,2.86,0,0,1-.82,2.15,3.69,3.69,0,0,1-2.33.91v2.57h-1V75.09a3.59,3.59,0,0,1-2.3-.92,2.86,2.86,0,0,1-.84-2.14,2.8,2.8,0,0,1,.84-2.14,3.66,3.66,0,0,1,2.34-.9v-2.4h.92V69a3.64,3.64,0,0,1,2.32.93A2.84,2.84,0,0,1,227.61,72Zm-6.23,0a2.08,2.08,0,0,0,2.16,2.32V69.74a2.42,2.42,0,0,0-1.62.65A2.27,2.27,0,0,0,221.38,72Zm5.23,0a2.09,2.09,0,0,0-2.15-2.28v4.6a2.32,2.32,0,0,0,1.63-.7A2.39,2.39,0,0,0,226.61,72Z"/><path class="cls-5" d="M234.86,72a3.08,3.08,0,0,1-.79,2.26,2.88,2.88,0,0,1-2.19.82,3.21,3.21,0,0,1-1.53-.37,2.56,2.56,0,0,1-1-1.08A3.47,3.47,0,0,1,229,72a3.13,3.13,0,0,1,.78-2.26,2.93,2.93,0,0,1,2.19-.81,2.83,2.83,0,0,1,2.14.83A3.1,3.1,0,0,1,234.86,72ZM230,72a2.62,2.62,0,0,0,.49,1.73,2.05,2.05,0,0,0,2.9,0,3.23,3.23,0,0,0,0-3.45,1.81,1.81,0,0,0-1.46-.58,1.79,1.79,0,0,0-1.45.58A2.63,2.63,0,0,0,230,72Z"/><path class="cls-5" d="M240.91,69.84h-2.09V75h-1V69.84h-2.06v-.77h5.13Z"/><path class="cls-5" d="M247.73,72a3.12,3.12,0,0,1-.79,2.26,2.9,2.9,0,0,1-2.19.82,3.15,3.15,0,0,1-1.53-.37,2.58,2.58,0,0,1-1-1.08,3.47,3.47,0,0,1-.36-1.63,3.1,3.1,0,0,1,.79-2.26,2.89,2.89,0,0,1,2.18-.81,2.83,2.83,0,0,1,2.14.83A3.1,3.1,0,0,1,247.73,72Zm-4.9,0a2.62,2.62,0,0,0,.49,1.73,2.05,2.05,0,0,0,2.9,0,3.23,3.23,0,0,0,0-3.45,1.79,1.79,0,0,0-1.46-.58,1.75,1.75,0,0,0-1.44.58A2.58,2.58,0,0,0,242.83,72Z"/><path class="cls-5" d="M253.3,69.84h-2.89V75h-1V69.07h3.87Z"/><path class="cls-5" d="M257.57,75.11a2.88,2.88,0,0,1-1.15-.22,2.22,2.22,0,0,1-.87-.65h-.07a6.75,6.75,0,0,1,.07,1v2.44h-1V69.07h.79l.13.81h.05a2.26,2.26,0,0,1,.88-.7,2.9,2.9,0,0,1,1.14-.22,2.45,2.45,0,0,1,2,.81,4,4,0,0,1,0,4.53A2.46,2.46,0,0,1,257.57,75.11Zm-.14-5.38a1.8,1.8,0,0,0-1.43.5,2.48,2.48,0,0,0-.45,1.6V72a2.81,2.81,0,0,0,.45,1.79,1.79,1.79,0,0,0,1.45.54,1.55,1.55,0,0,0,1.31-.63,2.78,2.78,0,0,0,.47-1.71,2.69,2.69,0,0,0-.47-1.7A1.6,1.6,0,0,0,257.43,69.73Z"/><path class="cls-5" d="M265.89,75l-.19-.84h-.05a2.63,2.63,0,0,1-1,.75,3.11,3.11,0,0,1-1.19.2,2.22,2.22,0,0,1-1.5-.46,1.58,1.58,0,0,1-.54-1.29c0-1.2,1-1.82,3.11-1.88l1.09,0v-.37a1.4,1.4,0,0,0-.32-1,1.43,1.43,0,0,0-1-.33,4.57,4.57,0,0,0-1.82.45l-.3-.69a5.31,5.31,0,0,1,1-.37,4.92,4.92,0,0,1,1.14-.13,2.56,2.56,0,0,1,1.7.47,1.86,1.86,0,0,1,.55,1.51v4Zm-2.2-.63a2.1,2.1,0,0,0,1.43-.46,1.63,1.63,0,0,0,.52-1.29v-.53l-1,0a3.79,3.79,0,0,0-1.68.34,1,1,0,0,0-.51.91.89.89,0,0,0,.32.74A1.39,1.39,0,0,0,263.69,74.37Z"/><path class="cls-5" d="M275.51,72a2.87,2.87,0,0,1-.83,2.15,3.69,3.69,0,0,1-2.32.91v2.57h-1V75.09a3.54,3.54,0,0,1-2.29-.92,2.83,2.83,0,0,1-.85-2.14,2.8,2.8,0,0,1,.84-2.14,3.66,3.66,0,0,1,2.34-.9v-2.4h.93V69a3.64,3.64,0,0,1,2.31.93A2.81,2.81,0,0,1,275.51,72Zm-6.24,0a2.08,2.08,0,0,0,2.16,2.32V69.74a2.47,2.47,0,0,0-1.62.65A2.27,2.27,0,0,0,269.27,72Zm5.23,0a2.08,2.08,0,0,0-2.14-2.28v4.6A2.1,2.1,0,0,0,274.5,72Z"/><path class="cls-5" d="M281.16,75l-.19-.84h-.05a2.63,2.63,0,0,1-1,.75,3.18,3.18,0,0,1-1.19.2,2.22,2.22,0,0,1-1.5-.46,1.58,1.58,0,0,1-.54-1.29c0-1.2,1-1.82,3.11-1.88l1.09,0v-.37a1.44,1.44,0,0,0-.32-1,1.43,1.43,0,0,0-1-.33,4.53,4.53,0,0,0-1.82.45l-.3-.69a5.09,5.09,0,0,1,1-.37,4.84,4.84,0,0,1,1.13-.13,2.57,2.57,0,0,1,1.71.47,1.86,1.86,0,0,1,.55,1.51v4Zm-2.2-.63a2.12,2.12,0,0,0,1.43-.46,1.63,1.63,0,0,0,.52-1.29v-.53l-1,0a3.77,3.77,0,0,0-1.67.34,1,1,0,0,0-.51.91.86.86,0,0,0,.32.74A1.39,1.39,0,0,0,279,74.37Z"/></g></g></svg>