<svg xmlns="http://www.w3.org/2000/svg" viewBox="0 0 300 100"><defs><style>.cls-1,.cls-3{fill:#fff;}.cls-1{fill-opacity:0.8;}.cls-2{fill:#23bdee;}.cls-4{font-size:15.49px;fill:#595959;font-family:OpenSans-ExtraBold, Open Sans;font-weight:800;}.cls-5{font-size:11.08px;fill:#545567;font-family:OpenSans-Regular, Open Sans;}</style></defs><g id="Слой_2" data-name="Слой 2"><g id="Слой_1-2" data-name="Слой 1"><rect class="cls-1" width="300" height="100" rx="20"/><rect class="cls-2" x="28" y="25" width="50" height="50" rx="8"/><path class="cls-3" d="M40.06,65.24a.65.65,0,0,1-.65-.65v-24a.65.65,0,0,1,.65-.65H56.71a.65.65,0,0,1,.65.65V52.74A10.22,10.22,0,0,1,59.94,52V40.63a3.23,3.23,0,0,0-3.23-3.22h-13v-1.1a.66.66,0,0,1,.65-.66H61a.66.66,0,0,1,.65.66V51.86a10.18,10.18,0,0,1,2.58.37V36.31A3.23,3.23,0,0,0,61,33.08H44.38a3.23,3.23,0,0,0-3.22,3.23v1.1h-1.1a3.22,3.22,0,0,0-3.22,3.22v24a3.23,3.23,0,0,0,3.22,3.23H52.67a10.32,10.32,0,0,1-1.15-2.58Z"/><path class="cls-3" d="M44,46.7H50.7a1.29,1.29,0,1,0,0-2.57H44a1.29,1.29,0,1,0,0,2.57Z"/><path class="cls-3" d="M52.76,49.28H44a1.29,1.29,0,1,0,0,2.57h8.75a1.29,1.29,0,1,0,0-2.57Z"/><path class="cls-3" d="M53.93,55.18a1.3,1.3,0,0,0-1.17-.75H44A1.29,1.29,0,1,0,44,57h8.55A10.58,10.58,0,0,1,53.93,55.18Z"/><path class="cls-3" d="M42.72,60.87A1.28,1.28,0,0,0,44,62.15H51.1a9.91,9.91,0,0,1,.37-2.57H44A1.29,1.29,0,0,0,42.72,60.87Z"/><path class="cls-3" d="M68.49,60.55a7.34,7.34,0,0,1,.23,1.77,7.17,7.17,0,1,1-7.17-7.17,7.08,7.08,0,0,1,2.84.59L65.46,54a9,9,0,0,0-3.91-.89,9.18,9.18,0,1,0,9.18,9.18,9.07,9.07,0,0,0-.9-3.93Z"/><path class="cls-3" d="M70.2,52.1a1.68,1.68,0,0,0-2.31.54L61.24,63.33,59,60.15a1.67,1.67,0,0,0-1.37-.71,1.7,1.7,0,0,0-1,.3,1.67,1.67,0,0,0-.41,2.33L60,67.32a1.69,1.69,0,0,0,1.37.72h0a1.66,1.66,0,0,0,1.37-.79l8-12.84A1.68,1.68,0,0,0,70.2,52.1Z"/><text class="cls-4" transform="translate(99.81 36.88)">Надежные<tspan x="0" y="18.59">исполнители</tspan></text><text class="cls-5" transform="translate(98.63 75) scale(1.08 1)">Проверяем каждого фотографа</text></g></g></svg>