<svg xmlns="http://www.w3.org/2000/svg" viewBox="0 0 370 110"><defs><style>.cls-1,.cls-5{fill:#fff;}.cls-1{fill-opacity:0.8;}.cls-2{fill:#f88c3d;}.cls-3{fill:#595959;}.cls-4{fill:#545567;}</style></defs><g id="Слой_2" data-name="Слой 2"><g id="Слой_1-2" data-name="Слой 1"><rect class="cls-1" width="370" height="110" rx="20"/><rect class="cls-2" x="26" y="30" width="50" height="50" rx="8"/><path class="cls-3" d="M113.9,45.9H111V42.46h-6.44V45.9h-2.92V40h.92a17.1,17.1,0,0,0,1.63-3.89A23.11,23.11,0,0,0,105,31.4h7.37V40h1.51ZM109.38,40V33.84h-2a18.12,18.12,0,0,1-1.7,6.17Z"/><path class="cls-3" d="M123.39,38.16a4.53,4.53,0,0,1-1.13,3.27,4.18,4.18,0,0,1-3.17,1.18,4.1,4.1,0,0,1-3.1-1.2,4.5,4.5,0,0,1-1.16-3.25A4.49,4.49,0,0,1,116,34.9a4.27,4.27,0,0,1,3.18-1.16,4.52,4.52,0,0,1,2.23.54,3.66,3.66,0,0,1,1.49,1.53A5,5,0,0,1,123.39,38.16Zm-5.55,0a3.78,3.78,0,0,0,.29,1.68,1,1,0,0,0,1,.58,1,1,0,0,0,1-.58,3.93,3.93,0,0,0,.29-1.68,3.74,3.74,0,0,0-.29-1.66,1.14,1.14,0,0,0-2,0A3.6,3.6,0,0,0,117.84,38.16Z"/><path class="cls-3" d="M129,42.61a4.23,4.23,0,0,1-3.19-1.13,4.57,4.57,0,0,1-1.09-3.26,4.44,4.44,0,0,1,1.18-3.31,4.5,4.5,0,0,1,3.33-1.17,6.3,6.3,0,0,1,2.81.65l-.87,2.18a10.55,10.55,0,0,0-1-.37,3.36,3.36,0,0,0-.95-.14,1.28,1.28,0,0,0-1.11.56,2.73,2.73,0,0,0-.39,1.58c0,1.37.5,2.06,1.52,2.06a4.54,4.54,0,0,0,2.49-.76v2.35A4.79,4.79,0,0,1,129,42.61Z"/><path class="cls-3" d="M141.37,36.09h-2.82v6.37h-3V36.09h-2.83v-2.2h8.6Z"/><path class="cls-3" d="M151,38.16a4.53,4.53,0,0,1-1.13,3.27,4.16,4.16,0,0,1-3.17,1.18,4.1,4.1,0,0,1-3.1-1.2,4.5,4.5,0,0,1-1.15-3.25,4.44,4.44,0,0,1,1.13-3.26,4.23,4.23,0,0,1,3.17-1.16,4.49,4.49,0,0,1,2.23.54,3.61,3.61,0,0,1,1.49,1.53A5,5,0,0,1,151,38.16Zm-5.55,0a3.93,3.93,0,0,0,.29,1.68,1,1,0,0,0,1,.58,1,1,0,0,0,1-.58,4,4,0,0,0,.28-1.68,3.74,3.74,0,0,0-.29-1.66,1.14,1.14,0,0,0-2,0A3.74,3.74,0,0,0,145.4,38.16Z"/><path class="cls-3" d="M161,36.11a1.78,1.78,0,0,1-.44,1.24,2,2,0,0,1-1.2.62V38a2.16,2.16,0,0,1,1.41.63,1.89,1.89,0,0,1,.5,1.35q0,2.45-4,2.45h-4.66V33.89h4.68a5.69,5.69,0,0,1,2.79.54A1.83,1.83,0,0,1,161,36.11Zm-2.94.39c0-.45-.27-.67-.82-.67h-1.68v1.28h1.57a1.2,1.2,0,0,0,.7-.17A.54.54,0,0,0,158.09,36.5Zm.2,3.22a.61.61,0,0,0-.27-.57,1.41,1.41,0,0,0-.78-.18h-1.65v1.55h1.62C157.93,40.52,158.29,40.26,158.29,39.72Z"/><path class="cls-3" d="M167.15,42.61a4.58,4.58,0,0,1-3.32-1.14,4.29,4.29,0,0,1-1.19-3.24,4.66,4.66,0,0,1,1.1-3.33,4.86,4.86,0,0,1,6.12-.15,3.81,3.81,0,0,1,1.06,2.91V39h-5.29a1.47,1.47,0,0,0,.53,1.13,2.07,2.07,0,0,0,1.35.41,6.4,6.4,0,0,0,1.43-.15,7.6,7.6,0,0,0,1.42-.5V42a5.11,5.11,0,0,1-1.44.49A9.06,9.06,0,0,1,167.15,42.61ZM167,35.75a1.25,1.25,0,0,0-.88.33,1.56,1.56,0,0,0-.41,1h2.54a1.45,1.45,0,0,0-.35-1A1.13,1.13,0,0,0,167,35.75Z"/><path class="cls-3" d="M177.73,42.61a2.86,2.86,0,0,1-1.16-.22,2.81,2.81,0,0,1-1-.77h-.14c.09.6.14,1,.14,1.12v3.44h-3V33.89H175l.41,1.09h.14a2.58,2.58,0,0,1,2.27-1.24,2.54,2.54,0,0,1,2.23,1.18,5.63,5.63,0,0,1,.81,3.24,5.56,5.56,0,0,1-.84,3.26A2.66,2.66,0,0,1,177.73,42.61Zm-1-6.55a1,1,0,0,0-.91.47,3,3,0,0,0-.28,1.38v.23a3.34,3.34,0,0,0,.29,1.6,1,1,0,0,0,.93.49.87.87,0,0,0,.83-.49,3.73,3.73,0,0,0,.25-1.61,3.63,3.63,0,0,0-.25-1.59A.91.91,0,0,0,176.74,36.06Z"/><path class="cls-3" d="M185.51,33.89V37h2.34V33.89h3v8.57h-3V39.18h-2.34v3.28h-3V33.89Z"/><path class="cls-3" d="M195.81,33.89V37h.28a6.3,6.3,0,0,1,3.23.62,2.18,2.18,0,0,1,1,2,2.47,2.47,0,0,1-1,2.16,5.08,5.08,0,0,1-2.91.68h-3.6V33.89Zm1.55,5.86a.75.75,0,0,0-.25-.64,1.34,1.34,0,0,0-.83-.2h-.47v1.61h.5C197,40.52,197.36,40.27,197.36,39.75Zm6.86,2.71h-3V33.89h3Z"/><path class="cls-3" d="M210.41,42.61a4.61,4.61,0,0,1-3.33-1.14,4.28,4.28,0,0,1-1.18-3.24A4.66,4.66,0,0,1,207,34.9a4.86,4.86,0,0,1,6.12-.15,3.84,3.84,0,0,1,1,2.91V39h-5.28a1.46,1.46,0,0,0,.52,1.13,2.07,2.07,0,0,0,1.35.41,6.5,6.5,0,0,0,1.44-.15,7.86,7.86,0,0,0,1.42-.5V42a5.22,5.22,0,0,1-1.44.49A9.2,9.2,0,0,1,210.41,42.61Zm-.18-6.86a1.24,1.24,0,0,0-.87.33,1.56,1.56,0,0,0-.41,1h2.54a1.5,1.5,0,0,0-.35-1A1.17,1.17,0,0,0,210.23,35.75Z"/><path class="cls-3" d="M110.78,56.74A4.54,4.54,0,0,1,109.65,60a4.18,4.18,0,0,1-3.17,1.18,4.1,4.1,0,0,1-3.1-1.2,4.53,4.53,0,0,1-1.16-3.26,4.44,4.44,0,0,1,1.14-3.25,4.19,4.19,0,0,1,3.17-1.16,4.62,4.62,0,0,1,2.23.53,3.69,3.69,0,0,1,1.49,1.54A5,5,0,0,1,110.78,56.74Zm-5.55,0a4,4,0,0,0,.29,1.69,1,1,0,0,0,1,.58,1,1,0,0,0,1-.58,4.13,4.13,0,0,0,.28-1.69,3.72,3.72,0,0,0-.29-1.65,1,1,0,0,0-1-.56,1,1,0,0,0-1,.55A3.77,3.77,0,0,0,105.23,56.74Z"/><path class="cls-3" d="M120.42,54.68h-2.83v6.37h-3V54.68h-2.82v-2.2h8.6Z"/><path class="cls-3" d="M124.08,55.64a3.8,3.8,0,0,0,1.27-.15.51.51,0,0,0,.39-.48c0-.38-.38-.57-1.13-.57a5.71,5.71,0,0,0-2.29.53l-.84-2a8.61,8.61,0,0,1,1.66-.52,9,9,0,0,1,1.59-.13,5.43,5.43,0,0,1,2.82.6,1.91,1.91,0,0,1,1,1.72,1.78,1.78,0,0,1-.42,1.19,2.08,2.08,0,0,1-1.13.68v.08a2.35,2.35,0,0,1,1.41.64,1.92,1.92,0,0,1,.5,1.37q0,2.6-4.29,2.59a10.51,10.51,0,0,1-1.68-.12,6.92,6.92,0,0,1-1.59-.48V58.34a7.4,7.4,0,0,0,3.09.67,2.61,2.61,0,0,0,1.11-.19.58.58,0,0,0,.4-.55.56.56,0,0,0-.36-.56,3.81,3.81,0,0,0-1.3-.15h-1.12V55.64Z"/><path class="cls-3" d="M133.35,52.48v3.08h.28a6.4,6.4,0,0,1,3.23.62,2.23,2.23,0,0,1,1,2,2.48,2.48,0,0,1-1,2.16,5.09,5.09,0,0,1-2.92.68h-3.59V52.48Zm1.55,5.86a.75.75,0,0,0-.25-.64,1.37,1.37,0,0,0-.83-.2h-.47v1.61h.5C134.55,59.11,134.9,58.85,134.9,58.34Zm6.86,2.71h-3V52.48h3Z"/><path class="cls-3" d="M152.21,54.69a1.79,1.79,0,0,1-.44,1.24,2,2,0,0,1-1.21.62v.07a2.21,2.21,0,0,1,1.42.63,1.89,1.89,0,0,1,.49,1.35q0,2.44-4,2.45h-4.67V52.48h4.68a5.64,5.64,0,0,1,2.79.54A1.81,1.81,0,0,1,152.21,54.69Zm-3,.4c0-.45-.27-.68-.81-.68h-1.68V55.7h1.56a1.18,1.18,0,0,0,.7-.17A.53.53,0,0,0,149.26,55.09Zm.21,3.22a.61.61,0,0,0-.27-.57,1.47,1.47,0,0,0-.79-.18h-1.64v1.55h1.61C149.1,59.11,149.47,58.84,149.47,58.31Z"/><path class="cls-3" d="M157.14,52.48v3.08h.28a6.38,6.38,0,0,1,3.23.62,2.2,2.2,0,0,1,1,2,2.48,2.48,0,0,1-1,2.16,5.08,5.08,0,0,1-2.91.68h-3.59V52.48Zm1.56,5.86a.78.78,0,0,0-.25-.64,1.4,1.4,0,0,0-.84-.2h-.47v1.61h.5C158.34,59.11,158.7,58.85,158.7,58.34Zm6.86,2.71h-3V52.48h3Z"/><path class="cls-4" d="M108.08,75a4.12,4.12,0,0,1-1,3,3.83,3.83,0,0,1-2.89,1.09A3.89,3.89,0,0,1,101.22,78a4.2,4.2,0,0,1-1-3,4.12,4.12,0,0,1,1-3A3.87,3.87,0,0,1,104.16,71,3.8,3.8,0,0,1,107,72,4.08,4.08,0,0,1,108.08,75Zm-6.83,0a3.58,3.58,0,0,0,.74,2.44,2.76,2.76,0,0,0,2.16.83,2.72,2.72,0,0,0,2.15-.83A3.61,3.61,0,0,0,107,75a3.54,3.54,0,0,0-.73-2.42,2.7,2.7,0,0,0-2.14-.82,2.78,2.78,0,0,0-2.17.83A3.53,3.53,0,0,0,101.25,75Z"/><path class="cls-4" d="M114.18,73.83h-2.09V79h-1V73.83h-2.06v-.77h5.12Z"/><path class="cls-4" d="M116.68,75.52q1.83,0,1.83-.93c0-.58-.5-.88-1.48-.88a4.07,4.07,0,0,0-.82.08,6.61,6.61,0,0,0-1,.3l-.35-.73a5.76,5.76,0,0,1,2.18-.41,3.17,3.17,0,0,1,1.75.42,1.31,1.31,0,0,1,.64,1.14c0,.67-.4,1.1-1.21,1.31v0a2.28,2.28,0,0,1,1.08.57,1.32,1.32,0,0,1,.34.93,1.44,1.44,0,0,1-.72,1.28,3.69,3.69,0,0,1-2,.46,4.8,4.8,0,0,1-2.15-.39v-.82a5.43,5.43,0,0,0,2.17.46,2.45,2.45,0,0,0,1.28-.26.86.86,0,0,0,.43-.77c0-.69-.61-1-1.82-1H116v-.76Z"/><path class="cls-4" d="M122.23,75.51H124a3.15,3.15,0,0,1,1.82.42,1.45,1.45,0,0,1,.59,1.25,1.55,1.55,0,0,1-.63,1.35,3,3,0,0,1-1.83.46h-2.67V73.06h1Zm0,.77v2h1.65c1,0,1.55-.34,1.55-1a.79.79,0,0,0-.36-.73,2.43,2.43,0,0,0-1.22-.23ZM128.44,79h-1V73.06h1Z"/><path class="cls-4" d="M135.72,74.55a1.09,1.09,0,0,1-.36.88,2.08,2.08,0,0,1-1,.4v0a2.16,2.16,0,0,1,1.2.44,1.21,1.21,0,0,1,.38.94,1.46,1.46,0,0,1-.66,1.28,3.44,3.44,0,0,1-1.93.45h-2.83V73.06h2.82C134.92,73.06,135.72,73.56,135.72,74.55Zm-.95.08a.63.63,0,0,0-.36-.61,2.56,2.56,0,0,0-1.09-.18h-1.84v1.67h1.65a2.77,2.77,0,0,0,1.27-.21A.7.7,0,0,0,134.77,74.63ZM135,77.2a.75.75,0,0,0-.39-.7,3,3,0,0,0-1.31-.22h-1.77v2h1.79C134.39,78.24,135,77.89,135,77.2Z"/><path class="cls-4" d="M138.31,75.51h1.76a3.14,3.14,0,0,1,1.81.42,1.45,1.45,0,0,1,.59,1.25,1.57,1.57,0,0,1-.62,1.35A3.07,3.07,0,0,1,140,79h-2.67V73.06h1Zm0,.77v2H140c1,0,1.55-.34,1.55-1a.79.79,0,0,0-.36-.73,2.4,2.4,0,0,0-1.22-.23ZM144.52,79h-1V73.06h1Z"/><path class="cls-4" d="M150.68,73.06v2.48h3.61V73.06h1V79h-1V76.32h-3.61V79h-1V73.06Z"/><path class="cls-4" d="M161.28,79l-.2-.85h0a2.67,2.67,0,0,1-1,.76,3.2,3.2,0,0,1-1.2.2,2.32,2.32,0,0,1-1.5-.46,1.58,1.58,0,0,1-.54-1.29c0-1.2,1-1.83,3.12-1.88l1.09,0v-.36a1.4,1.4,0,0,0-.33-1,1.37,1.37,0,0,0-1-.34,4.64,4.64,0,0,0-1.82.46l-.3-.69a5.14,5.14,0,0,1,2.18-.51,2.59,2.59,0,0,1,1.7.47,1.89,1.89,0,0,1,.56,1.51v4Zm-2.2-.64a2,2,0,0,0,1.42-.46,1.6,1.6,0,0,0,.52-1.28v-.54l-1,0a4,4,0,0,0-1.67.33,1,1,0,0,0-.52.92.9.9,0,0,0,.32.74A1.42,1.42,0,0,0,159.08,78.35Z"/><path class="cls-4" d="M172.67,76a3.1,3.1,0,0,1-.79,2.26,2.93,2.93,0,0,1-2.19.82,3.1,3.1,0,0,1-1.53-.38,2.53,2.53,0,0,1-1-1.07,3.5,3.5,0,0,1-.36-1.63,3.12,3.12,0,0,1,.78-2.26,2.9,2.9,0,0,1,2.18-.81,2.85,2.85,0,0,1,2.15.83A3.1,3.1,0,0,1,172.67,76Zm-4.89,0a2.64,2.64,0,0,0,.49,1.73,2.08,2.08,0,0,0,2.9,0,2.62,2.62,0,0,0,.49-1.73,2.59,2.59,0,0,0-.49-1.72,2.1,2.1,0,0,0-2.91,0A2.66,2.66,0,0,0,167.78,76Z"/><path class="cls-4" d="M177,79.1a2.86,2.86,0,0,1-2.16-.8,3.07,3.07,0,0,1-.77-2.24,3.19,3.19,0,0,1,.78-2.3A2.93,2.93,0,0,1,177,73a4.88,4.88,0,0,1,.93.09,4.07,4.07,0,0,1,.73.22l-.3.76a4.77,4.77,0,0,0-.7-.19,3,3,0,0,0-.68-.08c-1.31,0-2,.76-2,2.3a2.59,2.59,0,0,0,.48,1.68,1.72,1.72,0,0,0,1.42.58,4.46,4.46,0,0,0,1.64-.32v.8A3.83,3.83,0,0,1,177,79.1Z"/><path class="cls-4" d="M181.07,73.06v2.48h3.6V73.06h1V79h-1V76.32h-3.6V79h-1V73.06Z"/><path class="cls-4" d="M193.26,76a3.1,3.1,0,0,1-.79,2.26,2.93,2.93,0,0,1-2.19.82,3.1,3.1,0,0,1-1.53-.38,2.48,2.48,0,0,1-1-1.07,3.5,3.5,0,0,1-.37-1.63,3.12,3.12,0,0,1,.79-2.26,2.89,2.89,0,0,1,2.18-.81,2.85,2.85,0,0,1,2.15.83A3.1,3.1,0,0,1,193.26,76Zm-4.9,0a2.64,2.64,0,0,0,.5,1.73,1.74,1.74,0,0,0,1.44.59,1.78,1.78,0,0,0,1.46-.59,2.62,2.62,0,0,0,.49-1.73,2.59,2.59,0,0,0-.49-1.72,1.82,1.82,0,0,0-1.47-.59,1.8,1.8,0,0,0-1.44.58A2.66,2.66,0,0,0,188.36,76Z"/><path class="cls-4" d="M200.18,74.55a1.09,1.09,0,0,1-.36.88,2.08,2.08,0,0,1-1,.4v0a2.16,2.16,0,0,1,1.2.44,1.21,1.21,0,0,1,.38.94,1.46,1.46,0,0,1-.66,1.28,3.42,3.42,0,0,1-1.93.45H195V73.06h2.82C199.38,73.06,200.18,73.56,200.18,74.55Zm-1,.08a.63.63,0,0,0-.36-.61,2.53,2.53,0,0,0-1.09-.18h-1.84v1.67h1.65a2.74,2.74,0,0,0,1.27-.21A.7.7,0,0,0,199.23,74.63Zm.18,2.57a.75.75,0,0,0-.39-.7,3,3,0,0,0-1.31-.22h-1.77v2h1.79C198.85,78.24,199.41,77.89,199.41,77.2Z"/><path class="cls-4" d="M204.52,79.1a3.11,3.11,0,0,1-2.25-.8,3,3,0,0,1-.83-2.23,3.25,3.25,0,0,1,.77-2.27,2.61,2.61,0,0,1,2-.85,2.57,2.57,0,0,1,1.92.73,2.69,2.69,0,0,1,.7,1.94v.57h-4.43a2.24,2.24,0,0,0,.57,1.58,2.09,2.09,0,0,0,1.53.54,5.46,5.46,0,0,0,2-.4v.8a5.32,5.32,0,0,1-1,.3A5.93,5.93,0,0,1,204.52,79.1Zm-.27-5.4a1.67,1.67,0,0,0-1.23.47,2,2,0,0,0-.54,1.29h3.36a1.88,1.88,0,0,0-.41-1.3A1.5,1.5,0,0,0,204.25,73.7Z"/><path class="cls-4" d="M216.88,74.55a1.1,1.1,0,0,1-.37.88,2,2,0,0,1-1,.4v0a2.16,2.16,0,0,1,1.2.44,1.21,1.21,0,0,1,.38.94,1.46,1.46,0,0,1-.66,1.28,3.42,3.42,0,0,1-1.93.45h-2.83V73.06h2.82C216.08,73.06,216.88,73.56,216.88,74.55Zm-1,.08a.63.63,0,0,0-.36-.61,2.53,2.53,0,0,0-1.09-.18h-1.84v1.67h1.65a2.74,2.74,0,0,0,1.27-.21A.7.7,0,0,0,215.92,74.63Zm.19,2.57a.76.76,0,0,0-.4-.7,2.94,2.94,0,0,0-1.31-.22h-1.77v2h1.79C215.54,78.24,216.11,77.89,216.11,77.2Z"/><path class="cls-4" d="M219.47,75.51h1.75a3.18,3.18,0,0,1,1.82.42,1.45,1.45,0,0,1,.59,1.25,1.55,1.55,0,0,1-.63,1.35,3.07,3.07,0,0,1-1.84.46h-2.67V73.06h1Zm0,.77v2h1.65c1,0,1.55-.34,1.55-1a.81.81,0,0,0-.36-.73,2.43,2.43,0,0,0-1.22-.23ZM225.68,79h-1V73.06h1Z"/><path class="cls-4" d="M228.72,79h-1V73.06h5.4V79h-1V73.84h-3.43Z"/><path class="cls-4" d="M240.75,76a3.1,3.1,0,0,1-.79,2.26,2.93,2.93,0,0,1-2.19.82,3.1,3.1,0,0,1-1.53-.38,2.53,2.53,0,0,1-1-1.07,3.5,3.5,0,0,1-.36-1.63,3.12,3.12,0,0,1,.78-2.26,2.9,2.9,0,0,1,2.18-.81,2.85,2.85,0,0,1,2.15.83A3.1,3.1,0,0,1,240.75,76Zm-4.89,0a2.64,2.64,0,0,0,.49,1.73,2.08,2.08,0,0,0,2.9,0,2.62,2.62,0,0,0,.49-1.73,2.59,2.59,0,0,0-.49-1.72,2.1,2.1,0,0,0-2.91,0A2.66,2.66,0,0,0,235.86,76Z"/><path class="cls-4" d="M247.25,79h-1V73.83h-1.93a21.52,21.52,0,0,1-.44,3,4.1,4.1,0,0,1-.73,1.66,1.43,1.43,0,0,1-1.14.52,1.73,1.73,0,0,1-.51-.06v-.67a1.35,1.35,0,0,0,.29,0q.67,0,1.08-1.32a20.19,20.19,0,0,0,.6-4h3.76Z"/><path class="cls-4" d="M250.29,73.06v2.48h3.6V73.06h1V79h-1V76.32h-3.6V79h-1V73.06Z"/><path class="cls-4" d="M259.65,79.1a3.11,3.11,0,0,1-2.25-.8,3,3,0,0,1-.83-2.23,3.25,3.25,0,0,1,.77-2.27,2.61,2.61,0,0,1,2.05-.85,2.57,2.57,0,0,1,1.92.73,2.73,2.73,0,0,1,.7,1.94v.57h-4.43a2.24,2.24,0,0,0,.57,1.58,2.07,2.07,0,0,0,1.53.54,5.46,5.46,0,0,0,2.05-.4v.8a5.32,5.32,0,0,1-1,.3A5.93,5.93,0,0,1,259.65,79.1Zm-.27-5.4a1.65,1.65,0,0,0-1.23.47,2.08,2.08,0,0,0-.55,1.29H261a1.83,1.83,0,0,0-.41-1.3A1.47,1.47,0,0,0,259.38,73.7Z"/><path class="cls-4" d="M264.64,73.06v2.48h3.6V73.06h1V79h-1V76.32h-3.6V79h-1V73.06Z"/><path class="cls-4" d="M272.26,75.51H274a3.18,3.18,0,0,1,1.82.42,1.45,1.45,0,0,1,.59,1.25,1.55,1.55,0,0,1-.63,1.35A3.07,3.07,0,0,1,274,79h-2.67V73.06h1Zm0,.77v2h1.65c1,0,1.54-.34,1.54-1a.81.81,0,0,0-.35-.73,2.43,2.43,0,0,0-1.22-.23ZM278.47,79h-1V73.06h1Z"/><path class="cls-4" d="M282.08,76l-2.23-2.89H281l1.69,2.27,1.69-2.27h1.1L283.2,76l2.35,3h-1.1l-1.8-2.4L280.83,79h-1.1Z"/><path class="cls-4" d="M291.17,75.52q1.83,0,1.83-.93c0-.58-.5-.88-1.48-.88a4.07,4.07,0,0,0-.82.08,6.61,6.61,0,0,0-1,.3l-.35-.73a5.76,5.76,0,0,1,2.18-.41,3.17,3.17,0,0,1,1.75.42,1.31,1.31,0,0,1,.64,1.14c0,.67-.4,1.1-1.21,1.31v0a2.28,2.28,0,0,1,1.08.57,1.32,1.32,0,0,1,.34.93,1.45,1.45,0,0,1-.71,1.28,3.76,3.76,0,0,1-2,.46,4.8,4.8,0,0,1-2.15-.39v-.82a5.43,5.43,0,0,0,2.17.46,2.45,2.45,0,0,0,1.28-.26.86.86,0,0,0,.43-.77c0-.69-.61-1-1.82-1h-.9v-.76Z"/><path class="cls-4" d="M299.7,79l-.19-.85h-.05a2.67,2.67,0,0,1-1,.76,3.14,3.14,0,0,1-1.19.2,2.28,2.28,0,0,1-1.5-.46,1.58,1.58,0,0,1-.54-1.29c0-1.2,1-1.83,3.11-1.88l1.09,0v-.36a1.44,1.44,0,0,0-.32-1,1.39,1.39,0,0,0-1-.34,4.56,4.56,0,0,0-1.82.46l-.3-.69a4.73,4.73,0,0,1,1-.37,4.94,4.94,0,0,1,1.14-.14,2.61,2.61,0,0,1,1.7.47,1.89,1.89,0,0,1,.55,1.51v4Zm-2.2-.64a2.07,2.07,0,0,0,1.43-.46,1.6,1.6,0,0,0,.52-1.28v-.54l-1,0a4,4,0,0,0-1.68.33,1,1,0,0,0-.51.92.88.88,0,0,0,.32.74A1.39,1.39,0,0,0,297.5,78.35Z"/><path class="cls-4" d="M308,81h-.94V79h-4.49V81h-.94V78.21h.5a7.14,7.14,0,0,0,1.23-2.3,9.15,9.15,0,0,0,.47-2.85h3.25v5.15H308Zm-1.86-2.83V73.77h-1.44a9.31,9.31,0,0,1-.5,2.43,6.55,6.55,0,0,1-1.06,2Z"/><path class="cls-4" d="M313.25,79l-.19-.85H313a2.67,2.67,0,0,1-1,.76,3.18,3.18,0,0,1-1.19.2,2.28,2.28,0,0,1-1.5-.46,1.58,1.58,0,0,1-.54-1.29c0-1.2,1-1.83,3.11-1.88l1.09,0v-.36a1.44,1.44,0,0,0-.32-1,1.39,1.39,0,0,0-1-.34,4.56,4.56,0,0,0-1.82.46l-.3-.69a4.56,4.56,0,0,1,1-.37,4.86,4.86,0,0,1,1.13-.14,2.62,2.62,0,0,1,1.71.47,1.89,1.89,0,0,1,.55,1.51v4Zm-2.2-.64a2.07,2.07,0,0,0,1.43-.46,1.6,1.6,0,0,0,.52-1.28v-.54l-1,0a4,4,0,0,0-1.67.33,1,1,0,0,0-.51.92.88.88,0,0,0,.32.74A1.39,1.39,0,0,0,311.05,78.35Z"/><path class="cls-4" d="M317,73.06v2.48h3.6V73.06h1V79h-1V76.32H317V79h-1V73.06Z"/><path class="cls-4" d="M324.51,73.06v3.76l-.05,1v.31l3.48-5h1.21V79h-.91V75.36l0-.71,0-.7-3.48,5h-1.21V73.06Z"/><path class="cls-4" d="M332.12,73.06v3.76l0,1,0,.31,3.48-5h1.21V79h-.91V75.36l0-.71,0-.7-3.47,5H331.2V73.06Zm1.84-.78a2.58,2.58,0,0,1-1.59-.39,1.67,1.67,0,0,1-.56-1.27h.92a1.09,1.09,0,0,0,.32.78,1.48,1.48,0,0,0,.93.22,1.37,1.37,0,0,0,.89-.24,1.1,1.1,0,0,0,.36-.76h.92a1.7,1.7,0,0,1-.59,1.25A2.62,2.62,0,0,1,334,72.28Z"/><path class="cls-5" d="M37.5,57.85a1.47,1.47,0,0,0,2-.4,12.81,12.81,0,0,1,21.25,0,1.46,1.46,0,0,0,2,.4,1.47,1.47,0,0,0,.4-2,15.71,15.71,0,0,0-7.74-6,8.32,8.32,0,1,0-10.54,0,15.66,15.66,0,0,0-7.85,6.09A1.46,1.46,0,0,0,37.5,57.85ZM50.24,37.94a5.38,5.38,0,1,1-5.37,5.38A5.38,5.38,0,0,1,50.24,37.94Zm5.87,23.12-2.2,1.58a.93.93,0,0,0-.34,1l.89,2.56a1,1,0,0,1,0,.33,1,1,0,0,1-1.52.71l-2.2-1.59a1,1,0,0,0-.54-.17,1,1,0,0,0-.55.17L47.5,67.27A1,1,0,0,1,46,66.56a1,1,0,0,1,.05-.33l.88-2.56a.9.9,0,0,0-.34-1l-2.19-1.58a1,1,0,0,1,.55-1.78h2.71a.83.83,0,0,0,.88-.54l.84-2.57a.93.93,0,0,1,1.77,0L52,58.74a.84.84,0,0,0,.89.54h2.71A1,1,0,0,1,56.11,61.06Zm12.58,5.15-2.2,1.58a.93.93,0,0,0-.34,1L67,71.38a.79.79,0,0,1,0,.33,1,1,0,0,1-1.52.71l-2.19-1.59a1,1,0,0,0-.55-.17,1,1,0,0,0-.55.17l-2.19,1.59a1,1,0,0,1-1.53-.71,1,1,0,0,1,.05-.33l.88-2.56a.9.9,0,0,0-.34-1L57,66.21a1,1,0,0,1,.55-1.78h2.71a.83.83,0,0,0,.88-.54l.84-2.57a.92.92,0,0,1,.89-.64.91.91,0,0,1,.88.64l.84,2.57a.84.84,0,0,0,.89.54h2.71A1,1,0,0,1,68.69,66.21Zm-25.17,0-2.19,1.58a.92.92,0,0,0-.34,1l.89,2.56a1,1,0,0,1,0,.33,1,1,0,0,1-1.52.71l-2.2-1.59a1,1,0,0,0-1.09,0l-2.19,1.59a1,1,0,0,1-1.53-.71,1,1,0,0,1,0-.33l.88-2.56a.9.9,0,0,0-.34-1l-2.19-1.58a1,1,0,0,1,.55-1.78h2.71a.83.83,0,0,0,.88-.54l.84-2.57a.93.93,0,0,1,1.77,0l.84,2.57a.84.84,0,0,0,.89.54H43A1,1,0,0,1,43.52,66.21Z"/></g></g></svg>